<?xml version="1.0" encoding="UTF-8" standalone="no"?>
<svg
   xmlns:dc="http://purl.org/dc/elements/1.1/"
   xmlns:cc="http://creativecommons.org/ns#"
   xmlns:rdf="http://www.w3.org/1999/02/22-rdf-syntax-ns#"
   xmlns:svg="http://www.w3.org/2000/svg"
   xmlns="http://www.w3.org/2000/svg"
   xmlns:sodipodi="http://sodipodi.sourceforge.net/DTD/sodipodi-0.dtd"
   xmlns:inkscape="http://www.inkscape.org/namespaces/inkscape"
   version="1.1"
   x="0px"
   y="0px"
   viewBox="0 0 12 13"
   xml:space="preserve"
   id="svg2"
   inkscape:version="0.91 r13725"
   sodipodi:docname="washingMachine.svg"
   width="12"
   height="13"><metadata
     id="metadata18"><rdf:RDF><cc:Work
         rdf:about=""><dc:format>image/svg+xml</dc:format><dc:type
           rdf:resource="http://purl.org/dc/dcmitype/StillImage" /><dc:title></dc:title></cc:Work></rdf:RDF></metadata><defs
     id="defs16" /><sodipodi:namedview
     pagecolor="#ffffff"
     bordercolor="#666666"
     borderopacity="1"
     objecttolerance="10"
     gridtolerance="10"
     guidetolerance="10"
     inkscape:pageopacity="0"
     inkscape:pageshadow="2"
     inkscape:window-width="1216"
     inkscape:window-height="644"
     id="namedview14"
     showgrid="false"
     fit-margin-top="0"
     fit-margin-left="0"
     fit-margin-right="0"
     fit-margin-bottom="0"
     inkscape:zoom="11.8"
     inkscape:cx="5.9152542"
     inkscape:cy="4"
     inkscape:window-x="0"
     inkscape:window-y="0"
     inkscape:window-maximized="0"
     inkscape:current-layer="svg2" /><g
     id="g4"
     style="fill:#fb1a80;fill-opacity:1"
     transform="translate(-2,-1)"><path
       d="M 13,1 3,1 C 2.448,1 2,1.448 2,2 l 0,11 c 0,0.552 0.448,1 1,1 l 10,0 c 0.552,0 1,-0.448 1,-1 L 14,2 C 14,1.448 13.552,1 13,1 Z M 8,12 C 5.791,12 4,10.209 4,8 4,5.791 5.791,4 8,4 c 2.209,0 4,1.791 4,4 0,2.209 -1.791,4 -4,4 z m 5,-9 -2,0 0,-1 2,0 0,1 z"
       id="path6"
       style="fill:#fb1a80;fill-opacity:1"
       inkscape:connector-curvature="0" /><path
       d="M 8,8 C 6.031,6.031 5,8 5,8 c 0,1.657 1.343,3 3,3 1.657,0 3,-1.343 3,-3 0,0 -1.031,1.969 -3,0 z"
       id="path8"
       style="fill:#fb1a80;fill-opacity:1"
       inkscape:connector-curvature="0" /></g><text
     x="-2"
     y="30"
     font-size="5px"
     font-weight="bold"
     id="text10"
     style="font-weight:bold;font-size:5px;font-family:'Helvetica Neue', Helvetica, Arial-Unicode, Arial, Sans-serif;fill:#000000">Created by Icon Solid</text>
<text
     x="-2"
     y="35"
     font-size="5px"
     font-weight="bold"
     id="text12"
     style="font-weight:bold;font-size:5px;font-family:'Helvetica Neue', Helvetica, Arial-Unicode, Arial, Sans-serif;fill:#000000">from the Noun Project</text>
</svg>